<svg width="105" height="86" viewBox="0 0 105 86" fill="none" xmlns="http://www.w3.org/2000/svg">
<mask id="mask0_20_25" style="mask-type:luminance" maskUnits="userSpaceOnUse" x="0" y="0" width="105" height="86">
<path d="M104.229 0H0V85.171H104.229V0Z" fill="white"/>
</mask>
<g mask="url(#mask0_20_25)">
<path d="M52.1383 85.171H52.1013C51.8113 85.171 51.5122 85.161 51.2222 85.143C50.9132 85.124 50.6053 85.096 50.3063 85.058C50.0073 85.02 49.6982 84.974 49.3992 84.927C49.3815 84.9197 49.3624 84.9167 49.3433 84.918C49.0623 84.862 48.7813 84.797 48.5013 84.731C48.0545 84.6306 47.6143 84.5027 47.1832 84.348H47.1733C46.7343 84.198 46.3133 84.03 45.8923 83.843C45.7523 83.777 45.6123 83.721 45.4813 83.643C45.3503 83.565 45.2003 83.512 45.0693 83.443L45.0603 83.434C44.9203 83.359 44.7893 83.284 44.6603 83.209C44.5313 83.134 44.3893 83.06 44.2603 82.976C44.0263 82.835 43.7923 82.695 43.5683 82.545C43.0209 82.1684 42.4963 81.7596 41.9973 81.321C41.8473 81.19 41.7163 81.068 41.5763 80.928C41.4833 80.844 41.3993 80.759 41.3053 80.666C41.1373 80.498 40.9683 80.32 40.8053 80.142C40.6423 79.964 40.4882 79.778 40.3292 79.591C40.1702 79.404 40.0203 79.217 39.8803 79.02C39.7403 78.823 39.5903 78.62 39.4503 78.412L39.1133 77.912L39.0013 77.743C37.5765 75.357 36.8236 72.63 36.8223 69.851C36.8175 66.8069 37.7298 63.8321 39.4403 61.314L51.8113 42.969L52.1203 42.52L52.5593 41.865L60.0773 30.71L75.5153 7.82899C75.5198 7.81877 75.5258 7.80933 75.5333 7.80101L76.2533 6.735C77.3554 5.02095 78.7888 3.54434 80.4693 2.39183C82.1499 1.23931 84.0437 0.43411 86.0397 0.0235088C88.0357 -0.387092 90.0936 -0.394803 92.0926 0.000773162C94.0916 0.396349 95.9915 1.18726 97.6807 2.3271C99.3699 3.46694 100.814 4.93273 101.929 6.63844C103.044 8.34414 103.807 10.2554 104.173 12.26C104.54 14.2646 104.502 16.3221 104.062 18.3119C103.622 20.3017 102.789 22.1835 101.612 23.847L77.7123 59.276C77.7033 59.285 77.7033 59.295 77.6933 59.304L71.1113 69.066L64.9303 78.229C64.9023 78.267 64.8833 78.295 64.8643 78.323C64.8482 78.3576 64.8262 78.3891 64.7993 78.416V78.426C64.6123 78.697 64.4163 78.959 64.2193 79.211C64.197 79.2576 64.1654 79.2992 64.1263 79.333C63.9953 79.511 63.8452 79.688 63.6962 79.856C63.4622 80.137 63.2093 80.408 62.9483 80.67L62.9293 80.689C62.7293 80.889 62.5362 81.072 62.3292 81.259C62.2452 81.325 62.1613 81.399 62.0773 81.474C61.9273 81.614 61.7683 81.736 61.6093 81.858C61.5674 81.9009 61.5203 81.9385 61.4693 81.97C61.3198 82.0934 61.1639 82.2089 61.0023 82.316C60.9024 82.399 60.7961 82.4739 60.6843 82.54C60.6843 82.549 60.6743 82.549 60.6743 82.549C60.1649 82.8894 59.6375 83.2018 59.0943 83.485C58.8513 83.606 58.5992 83.728 58.3552 83.84C58.3462 83.84 58.3463 83.849 58.3373 83.849C58.0563 83.971 57.7853 84.083 57.5053 84.186C57.2253 84.289 56.9253 84.392 56.6263 84.486C56.3273 84.58 56.0373 84.654 55.7473 84.729C55.4573 84.804 55.1763 84.86 54.8963 84.916C54.8622 84.9176 54.8286 84.9241 54.7963 84.935C54.5063 84.982 54.2263 85.028 53.9363 85.056C53.6463 85.084 53.3282 85.122 53.0192 85.141C52.7272 85.161 52.4383 85.171 52.1383 85.171Z" fill="#0B63E5"/>
<g style="mix-blend-mode:multiply" opacity="0.1">
<path d="M52.1383 85.171H52.1013C51.8113 85.171 51.5122 85.1609 51.2222 85.1429C50.9132 85.1239 50.6053 85.096 50.3063 85.058C50.0073 85.02 49.6982 84.9739 49.3992 84.9269C49.3815 84.9197 49.3624 84.9166 49.3433 84.918C49.0623 84.862 48.7813 84.797 48.5013 84.731C48.0545 84.6306 47.6143 84.5027 47.1832 84.348H47.1733C46.7343 84.198 46.3133 84.03 45.8923 83.843C45.7523 83.777 45.6123 83.7209 45.4813 83.6429C45.3503 83.5649 45.2003 83.512 45.0693 83.443L45.0603 83.434C44.9203 83.359 44.7893 83.284 44.6603 83.209C44.5313 83.134 44.3893 83.06 44.2603 82.976C44.0263 82.835 43.7923 82.695 43.5683 82.545C43.0209 82.1683 42.4963 81.7596 41.9973 81.321C41.8473 81.19 41.7163 81.0679 41.5763 80.9279C41.4833 80.8439 41.3993 80.759 41.3053 80.666C41.1373 80.498 40.9683 80.32 40.8053 80.142C40.6423 79.964 40.4882 79.7779 40.3292 79.5909C40.1702 79.4039 40.0203 79.217 39.8803 79.02C39.7403 78.823 39.5903 78.62 39.4503 78.412L39.1133 77.912L39.0013 77.743C37.5765 75.3569 36.8236 72.63 36.8223 69.851C36.8175 66.8069 37.7298 63.832 39.4403 61.314L51.8113 42.969L52.1203 42.52L52.5593 41.865L60.0773 30.71L60.3483 31.6639L71.1113 69.064L64.9303 78.227C64.9023 78.265 64.8833 78.293 64.8643 78.321C64.8482 78.3555 64.8262 78.387 64.7993 78.4139V78.424C64.6123 78.695 64.4163 78.957 64.2193 79.209C64.197 79.2556 64.1654 79.2971 64.1263 79.331C63.9953 79.509 63.8452 79.6859 63.6962 79.8539C63.4622 80.1349 63.2093 80.406 62.9483 80.668L62.9293 80.687C62.7293 80.887 62.5362 81.07 62.3292 81.257C62.2452 81.323 62.1613 81.397 62.0773 81.472C61.9273 81.612 61.7683 81.734 61.6093 81.856C61.5674 81.8989 61.5203 81.9365 61.4693 81.968C61.3198 82.0914 61.1639 82.2069 61.0023 82.314C60.9024 82.397 60.7961 82.4719 60.6843 82.538C60.6843 82.547 60.6743 82.547 60.6743 82.547C60.1649 82.8873 59.6375 83.1998 59.0943 83.4829C58.8513 83.6039 58.5992 83.726 58.3552 83.838C58.3462 83.838 58.3463 83.847 58.3373 83.847C58.0563 83.969 57.7853 84.081 57.5053 84.184C57.2253 84.287 56.9253 84.3899 56.6263 84.4839C56.3273 84.5779 56.0373 84.652 55.7473 84.727C55.4573 84.802 55.1763 84.8579 54.8963 84.9139C54.8622 84.9156 54.8286 84.922 54.7963 84.933C54.5063 84.98 54.2263 85.026 53.9363 85.054C53.6463 85.082 53.3282 85.1199 53.0192 85.1389C52.7272 85.1609 52.4383 85.171 52.1383 85.171Z" fill="black"/>
</g>
<path d="M52.1378 85.171H52.1009C51.8109 85.171 51.5118 85.161 51.2218 85.143C50.9128 85.124 50.6049 85.096 50.3059 85.058C50.0069 85.02 49.6978 84.974 49.3988 84.927C49.3811 84.9198 49.362 84.9167 49.3429 84.918C49.0619 84.862 48.7809 84.797 48.5009 84.731C47.6063 84.5139 46.7331 84.2167 45.8919 83.843C45.6119 83.721 45.3399 83.581 45.0689 83.45L45.0598 83.441C44.7888 83.301 44.5178 83.141 44.2598 82.983C44.0258 82.842 43.7918 82.702 43.5678 82.552C43.0205 82.1754 42.4959 81.7666 41.9968 81.328C41.7538 81.113 41.5288 80.897 41.3048 80.673C40.6184 79.9815 39.9987 79.2268 39.4538 78.419L39.1168 77.919L39.0048 77.75L35.6288 72.757L35.6198 72.748C35.6198 72.738 35.6109 72.738 35.6109 72.729C35.6109 72.72 35.6009 72.72 35.6009 72.71H35.5919C35.5778 72.6923 35.5651 72.6736 35.5539 72.654L23.7538 55.159L22.3609 53.093L2.62185 23.854C0.90293 21.3093 -0.00932717 18.3058 0.00405132 15.235C0.0174298 12.1641 0.955836 9.16861 2.69686 6.63901C2.76186 6.54601 2.81786 6.47101 2.86486 6.41501C4.21719 4.50739 5.99139 2.93749 8.04946 1.82745C10.1075 0.717422 12.394 0.0971963 14.7309 0.0150146H16.1988C18.5475 0.157525 20.8319 0.838893 22.8749 2.00632C24.9179 3.17374 26.6647 4.79587 27.9799 6.74701L39.5188 23.859L39.9489 24.495L45.8588 33.247L46.7749 34.612C46.784 34.6329 46.7968 34.6518 46.8128 34.668L52.1239 42.532L52.1698 42.597L64.8028 61.317C66.4889 63.8199 67.398 66.7651 67.4158 69.7829C67.4336 72.8007 66.5593 75.7565 64.9029 78.279C64.8649 78.335 64.8278 78.391 64.8028 78.438C64.6158 78.709 64.4199 78.971 64.2229 79.223C64.0549 79.448 63.8869 79.663 63.6999 79.868C63.4659 80.149 63.2129 80.42 62.9519 80.682L62.9328 80.701C62.6618 80.972 62.3809 81.234 62.0819 81.486C61.9319 81.626 61.7729 81.748 61.6139 81.87C61.572 81.913 61.5249 81.9506 61.4738 81.982C61.3243 82.1055 61.1685 82.2209 61.0069 82.328C60.9017 82.4113 60.7922 82.4891 60.6789 82.561C59.9376 83.0589 59.1558 83.4938 58.3418 83.861C58.0608 83.983 57.7898 84.095 57.5098 84.198C57.2299 84.301 56.9298 84.404 56.6308 84.498C56.3318 84.592 56.0419 84.666 55.7519 84.741C55.4619 84.816 55.1808 84.872 54.9008 84.928C54.8668 84.9297 54.8332 84.9361 54.8009 84.947C54.5109 84.994 54.2308 85.04 53.9408 85.068C53.6508 85.096 53.3328 85.134 53.0238 85.153C52.7268 85.161 52.4378 85.171 52.1378 85.171Z" fill="#0B63E5"/>
<g style="mix-blend-mode:multiply" opacity="0.1">
<path d="M23.7499 55.155L22.3569 53.089L2.61794 23.85C0.899024 21.3053 -0.0132334 18.3017 0.000145067 15.2309C0.0135236 12.1601 0.951899 9.16458 2.69292 6.63498C2.75792 6.54198 2.81395 6.46698 2.86095 6.41098C4.21328 4.50336 5.98749 2.93346 8.04556 1.82343C10.1036 0.713393 12.3901 0.0931679 14.727 0.0109863H16.1949C18.5436 0.153497 20.828 0.834865 22.871 2.00229C24.914 3.16971 26.6607 4.79184 27.9759 6.74298L39.5149 23.855L39.9449 24.491L45.8549 33.243L24.2179 54.685L23.7499 55.155Z" fill="black"/>
</g>
<path d="M22.7499 52.443C22.566 52.7435 22.1329 52.7531 21.9357 52.4611L2.61794 23.8459C0.899024 21.3013 -0.0132334 18.2977 0.000145067 15.2269C0.0135236 12.1561 0.951899 9.16055 2.69292 6.63095C2.75792 6.53795 2.81395 6.46295 2.86095 6.40695C4.21328 4.49933 5.98749 2.92943 8.04556 1.8194C10.1036 0.709365 12.3901 0.0891396 14.727 0.00695801H47.8362C50.9645 0.00695801 52.8821 3.43635 51.244 6.10149L39.9449 24.485L25.9168 47.2978C25.9122 47.3053 25.9064 47.3124 25.9024 47.3202V47.3202C25.8961 47.3324 25.8873 47.3429 25.8801 47.3546L22.7499 52.443V52.443Z" fill="#0B63E5"/>
<g style="mix-blend-mode:screen" opacity="0.6">
<path d="M62.9286 80.6919L63.6576 79.7289C63.9072 79.422 64.1383 79.1004 64.3496 78.7659L64.9576 77.7459C65.1579 77.4072 65.333 77.0543 65.4816 76.6899C65.6578 76.3369 65.8076 75.9712 65.9296 75.5959L66.2856 74.4829C66.3976 74.1089 66.4536 73.7259 66.5476 73.3419C66.6311 72.9662 66.6873 72.5848 66.7156 72.2009C66.7661 71.8166 66.7942 71.4296 66.7996 71.0419C66.7996 70.6489 66.8276 70.2659 66.7996 69.8819L66.7156 68.7229L66.5376 67.5819C66.3935 66.8238 66.2061 66.0746 65.9766 65.3379C65.8556 64.9729 65.7336 64.6089 65.5836 64.2529C65.4536 63.9169 65.2946 63.5709 65.1446 63.2719C63.5446 60.9429 61.9446 58.5959 60.3856 56.2489C58.8146 53.8839 57.2436 51.5179 55.7096 49.1239C54.1756 46.7299 52.6426 44.3369 51.1556 41.9239C50.3986 40.7179 49.6696 39.4929 48.9396 38.2769C48.2196 37.0769 47.4996 35.8769 46.8086 34.6589L64.7986 61.3079C66.7826 64.2547 67.6809 67.7993 67.3398 71.3353C66.9987 74.8713 65.4393 78.1788 62.9286 80.6919Z" fill="white"/>
</g>
<g style="mix-blend-mode:screen" opacity="0.6">
<path d="M77.7119 59.2791C78.6569 57.6521 79.6479 56.062 80.6199 54.463C81.5919 52.864 82.5929 51.247 83.5939 49.657C85.6039 46.469 87.6372 43.2961 89.6939 40.1381C91.7329 36.9681 93.8369 33.845 95.9119 30.704C98.0119 27.604 100.101 24.4861 102.224 21.4041L102.589 20.2631C102.71 19.8421 102.869 19.431 102.963 19.01L103.234 17.729C103.337 17.3086 103.404 16.88 103.434 16.4481L103.546 15.148C103.565 14.718 103.528 14.2881 103.518 13.8481L103.509 13.1931L103.415 12.557C103.367 12.1234 103.296 11.6927 103.2 11.2671L102.864 10.0041L102.383 8.78503C102.224 8.37303 102 7.99005 101.813 7.59705C101.609 7.20852 101.384 6.83098 101.14 6.46603C100.906 6.08303 100.616 5.74605 100.364 5.39105C100.083 5.04505 99.7929 4.70804 99.4849 4.38104C98.876 3.72935 98.2063 3.13732 97.4849 2.61304C100.847 4.88297 103.17 8.39517 103.943 12.3774C104.716 16.3597 103.876 20.486 101.608 23.8491L77.7119 59.2791Z" fill="white"/>
</g>
<g style="mix-blend-mode:screen" opacity="0.6">
<path d="M25.9102 47.31C27.0042 45.281 28.1542 43.28 29.2862 41.27C29.8652 40.27 30.4172 39.25 31.0152 38.259L32.7642 35.259L36.2702 29.266L39.8421 23.3L43.4522 17.372L47.0891 11.462L50.7732 5.57101C51.8302 3.89701 52.8681 2.23301 53.9431 0.571014L45.3692 0.384003C42.2272 0.253003 39.0852 0.17801 35.9342 0.0100098H54.9901L39.9452 24.485L25.9102 47.31Z" fill="white"/>
</g>
<g style="mix-blend-mode:multiply" opacity="0.3">
<path d="M35.6069 72.7249C35.5969 72.7249 35.5969 72.716 35.5879 72.706C35.5739 72.6883 35.5612 72.6696 35.5499 72.65L23.7499 55.155L22.3569 53.089L2.61794 23.8499C0.899024 21.3053 -0.0132334 18.3017 0.000145067 15.2309C0.0135236 12.1601 0.951899 9.16455 2.69292 6.63495C2.75792 6.54195 2.81395 6.46695 2.86095 6.41095C2.90795 6.35495 2.94495 6.31694 2.97295 6.28894C2.35533 7.18534 1.84673 8.15217 1.45794 9.16895C0.997526 10.344 0.686765 11.5723 0.532951 12.825C0.332911 14.4313 0.408666 16.0601 0.75695 17.641C1.14456 19.5093 1.83965 21.3003 2.81393 22.9409C2.92593 23.1409 3.06694 23.417 3.16894 23.577L3.62795 24.231C3.93595 24.671 4.24495 25.11 4.56295 25.559C5.18895 26.459 5.82494 27.382 6.47994 28.317C9.07994 32.048 11.8089 36.069 14.5399 40.09C15.8959 42.109 17.2399 44.129 18.5699 46.111C19.8879 48.111 21.1879 50.067 22.4409 51.974C22.5409 52.133 22.6469 52.292 22.7499 52.442C23.2449 53.199 23.7409 53.9419 24.2179 54.6859C26.0409 57.4719 27.7239 60.0859 29.2109 62.4279C31.1739 65.4949 32.7549 68.095 33.8859 69.89C34.8489 71.49 35.4569 72.4799 35.5969 72.7039C35.5969 72.716 35.6069 72.7159 35.6069 72.7249Z" fill="black"/>
</g>
<g style="mix-blend-mode:multiply" opacity="0.3">
<path d="M52.1826 42.5601C52.2196 42.4851 52.3506 42.242 52.5566 41.868L60.0746 30.713L75.5126 7.83203C75.3716 8.09403 74.1657 10.338 72.2587 13.489C71.2487 15.182 70.0426 17.1271 68.7236 19.2021C68.0506 20.2311 67.3866 21.302 66.6666 22.382C65.9466 23.462 65.2267 24.542 64.5067 25.636C63.1067 27.702 61.7016 29.7501 60.3456 31.6671C60.2806 31.7671 60.2056 31.867 60.1396 31.967C58.7186 33.977 57.3727 35.8291 56.1937 37.4091C53.9987 40.3631 52.3826 42.3261 52.1826 42.5601Z" fill="black"/>
</g>
</g>
</svg>
